<svg xmlns="http://www.w3.org/2000/svg" xmlns:svg="http://www.w3.org/2000/svg" width="42.259260878150826" height="44.444444665202354"><rect id="backgroundrect" width="100%" height="100%" x="0" y="0" fill="none" stroke="none"/>
 <g class="currentLayer">
  <title>Layer 1</title>
  <path id="svg_1" d="m-126.87595166015625,-4.377814567565919 l0,11.225 l18.667999000000002,0 l0,6.65 l-18.667999000000002,0 l0,17.112 l-7.9,0 l0,-41.637 l27.574,0 l0,6.65 l-19.674,0 z" fill="#999999" class=""/>
  <path id="svg_2" d="m-96.56091857910157,89.73140428378296 l7.613001000000001,0 l0,1.375999 c0,5.564003 -1.014999,9.161003000000001 -3.045002,10.791 s-6.519999,2.4450000000000003 -13.469999,2.4450000000000003 c-7.886999,0 -12.737999,-1.287994 -14.552999,-3.864998 c-1.816,-2.5769960000000003 -2.723,-9.468002 -2.723,-20.672997 c0,-6.598 1.23,-10.937004 3.6900000000000004,-13.016003 s7.604,-3.118999 15.432,-3.118999 c5.700001,0 9.507,0.8540000000000001 11.42,2.5620000000000003 c1.912998,1.7080000000000002 2.869999,5.099998 2.869999,10.175999000000001 l0.028999000000000004,0.907997 l-7.612999,0 l0,-1.024994 c0,-2.6160050000000004 -0.49300000000000005,-4.290001 -1.479,-5.022003 c-0.986,-0.7319980000000001 -3.236,-1.098 -6.75,-1.098 c-4.705,0 -7.53,0.5760000000000001 -8.476999,1.7279970000000002 s-1.42,4.568001 -1.42,10.249001 c0,7.652 0.42500000000000004,12.181999 1.274,13.587006 c0.8490000000000001,1.405998 3.597,2.107994 8.243,2.107994 c3.7680000000000002,0 6.212999,-0.38999900000000004 7.334999,-1.170998 s1.6840000000000002,-2.499001 1.6840000000000002,-5.153999 l-0.05999900000000001,-1.787003 z" fill="#999999" class=""/>
  <g id="svg_3" class="selected">
   <path id="svg_4" d="m49.807036756774906,42.64522220897675 l0,-41.636 l20.528,0 c5.104004,0 8.622002,0.8850000000000009 10.554001,2.654 c1.931,1.7690000000000001 2.898003,4.9719999999999995 2.898003,9.608 c0,4.209 -0.4830020000000003,7.087 -1.448997,8.632 c-0.9660030000000006,1.546 -2.944,2.613001 -5.933006,3.203001 l0,0.275 c4.616005,0.2850000000000003 6.924004,2.979 6.924004,8.083 l0,9.181 l-7.900002,0 l0,-7.595001 c0,-4.290001 -2.114998,-6.435999 -6.345001,-6.435999 l-11.376999,0 l0,14.031 l-7.900002,0 zm7.900002,-20.681 l11.347,0 c2.704002,0 4.499001,-0.4830000000000003 5.384003,-1.449001 c0.8850020000000006,-0.9660000000000006 1.326996,-2.903 1.326996,-5.810999 c0,-2.9690000000000003 -0.3809970000000003,-4.885 -1.1439970000000002,-5.75 c-0.7630000000000009,-0.8640000000000008 -2.434998,-1.296 -5.017998,-1.296 l-11.896004,0 l0,14.306001 z" fill="#999999"/>
   <path id="svg_5" d="m87.04704175677489,53.83622020897675 l0,39.971001 l-12.855003,0 l-11.419998,-21.932999 c-0.566002,-1.093002 -1.454002,-3.005997 -2.665001,-5.7389980000000005 l-1.288002,-2.870003 l-1.258995,-2.869999 l-0.292999,0 l0.11699700000000011,2.6349980000000004 l0.08799700000000013,2.6060030000000003 l0.05900600000000007,5.2419970000000005 l0,22.928001000000002 l-7.584,0 l0,-39.970001 l12.854996,0 l10.395004,20.263 c0.9179990000000009,1.795998 1.980995,3.973 3.191994,6.529999 l1.523003,3.25 l1.523003,3.279999 l0.264,0 l-0.0880050000000002,-2.5769960000000003 l-0.08799700000000013,-2.577003 l-0.05899800000000005,-5.153999 l0,-23.014999 l7.583,0 z" fill="#999999"/>
   <path id="svg_6" d="m110.00504175677492,60.630223208976744 l0,33.176998 l-7.584,0 l0,-33.176998 l-11.537003,0 l0,-6.794003 l31.069,0 l0,6.794003 l-11.947998,0 z" fill="#999999"/>
   <path id="svg_7" d="m151.4980387567749,53.83622020897675 l7.584,0 l0,26.589005 c0,5.563995 -1.069,9.243996 -3.205994,11.039993 c-2.138,1.796005 -6.506012,2.694 -13.104004,2.694 c-6.968994,0 -11.537003,-0.8489990000000012 -13.703995,-2.547997 s-3.25,-5.280998 -3.25,-10.747002 l0,-27.028 l7.584,0 l0,27.028 c0,2.947998 0.526993,4.817001 1.580994,5.608002 s3.533005,1.185997 7.438004,1.185997 c4.001999,0 6.514999,-0.39999400000000046 7.539993,-1.200996 c1.025009,-0.800003 1.537003,-2.762001 1.537003,-5.886002 l0,-26.735001 z" fill="#999999"/>
   <path id="svg_8" d="m41.2600397567749,53.83622020897675 l0,39.971001 l-39.105999,0 l0,-39.971001 l39.105999,0 zm-22.495998,15.270004 l0,7.202995 l2.6349980000000004,0 l0.028999000000000025,0.877998000000001 c0,1.796005 -1.073997,2.694 -3.2210010000000002,2.694 l0,3.133003 c0.6050030000000006,0.03900100000000005 1.015003,0.05899800000000005 1.230003,0.05899800000000005 c4.021,0 6.031998,-2.333 6.031998,-6.999001 l0,-6.968994 l-6.704998,0 l0,0.0009990000000000036 z" fill="#009244"/>
   <path id="svg_9" d="m40.9120397567749,1.0092222089767464 l0,41.636 l-38.757999,0 l0,-41.636 l38.757999,0 zm-22.425999,18.319001 l0,7.202999 l6.705997,0 l0,-7.202999 l-6.705997,0 z" fill="#0971B7"/>
   <g id="svg_10">
    <path id="svg_11" d="m-34.7759602432251,122.25521920897674 l0,-13.995995 l6.88,0 c1.955,0 3.323999,0.4269940000000003 4.106999,1.280998 c0.7820010000000006,0.8539960000000006 1.174,2.351997 1.174,4.490997 c0,3.493004 -0.3139990000000003,5.737 -0.9430000000000006,6.731003 c-0.6290000000000008,0.995003 -2.047,1.491997 -4.255,1.491997 l-6.963,0 l0,0.0009990000000000036 zm2.6550000000000002,-2.235001 l3.784,0 c1.271,0 2.092999,-0.2920000000000003 2.466,-0.8769990000000014 c0.3730000000000004,-0.5840000000000006 0.559,-1.8740010000000002 0.559,-3.8699950000000003 c0,-2.064003 -0.1670000000000003,-3.376999 -0.502,-3.9380040000000003 s-1.121,-0.841995000000001 -2.358,-0.841995000000001 l-3.949,0 l0,9.526993000000001 z" fill="#0971B7"/>
    <path id="svg_12" d="m-20.676961243225094,122.25521920897674 l0,-13.995995 l6.901001,0 c1.7160000000000002,0 2.8979990000000004,0.296997 3.548,0.8919980000000012 s0.9739990000000006,1.6709980000000015 0.9739990000000006,3.228996 c0,1.416 -0.16300000000000026,2.383003 -0.4870000000000003,2.902 s-0.989,0.879005000000001 -1.993999,1.076004 l0,0.09299500000000024 c1.552,0.0960010000000002 2.327999,1.002007 2.327999,2.7180020000000003 l0,3.085999 l-2.656,0 l0,-2.552994 c0,-1.442001 -0.7110000000000006,-2.164001 -2.132999,-2.164001 l-3.8250010000000003,0 l0,4.716995 l-2.656,0 zm2.656,-6.951996 l3.814001,0 c0.909,0 1.511999,-0.16200300000000026 1.8099990000000008,-0.4870000000000003 c0.297001,-0.3240050000000003 0.4459990000000003,-0.9760059999999995 0.4459990000000003,-1.953003 c0,-0.998001 -0.12799800000000022,-1.6429980000000008 -0.3839990000000003,-1.9329990000000001 c-0.257,-0.2910000000000003 -0.8190000000000006,-0.4369960000000004 -1.6870000000000007,-0.4369960000000004 l-3.999001,0 l0,4.809998 z" fill="#0971B7"/>
    <path id="svg_13" d="m1.861040756774905,108.25922520897674 l2.6559980000000003,0 l0,9.310997 c0,1.9469990000000008 -0.3750000000000004,3.236 -1.123001,3.864998 c-0.7489970000000009,0.629005000000001 -2.278,0.9430010000000006 -4.588997,0.9430010000000006 c-2.4400020000000002,0 -4.040001,-0.296997 -4.799002,-0.8929980000000012 c-0.759001000000001,-0.594002 -1.138,-1.848999 -1.138,-3.763 l0,-9.463996999999999 l2.656,0 l0,9.463996999999999 c0,1.031998 0.18500100000000022,1.6869960000000006 0.5540010000000006,1.963997 c0.368999,0.276001 1.237,0.415001 2.604,0.415001 c1.401001,0 2.280998,-0.1399990000000003 2.6409990000000008,-0.4209980000000003 c0.3580020000000003,-0.278999 0.538002,-0.9670030000000006 0.538002,-2.060997 l0,-9.360001 z" fill="#0971B7"/>
    <path id="svg_14" d="m6.967039756774902,122.25521920897674 l0,-13.995995 l5.639999,0 l0.6969990000000018,0 c1.8940010000000007,0 3.170002,0.3289950000000003 3.830002,0.988998 c0.659000000000001,0.658997000000001 0.988998,1.9329990000000001 0.988998,3.819 c0,1.8730010000000008 -0.3139990000000003,3.116997 -0.9429970000000006,3.732002 s-1.900002,0.9229970000000006 -3.814003,0.9229970000000006 l-0.614998000000001,0.011002000000000024 l-3.126999,0 l0,4.520996 l-2.657001,0 l0,0.0009990000000000036 zm2.6559980000000003,-6.757996 l3.025002,0 c1.2029990000000002,0 1.9669990000000008,-0.138 2.292,-0.415001 c0.3240010000000003,-0.276001 0.4870000000000003,-0.931 0.4870000000000003,-1.963997 c0,-1.182007 -0.13499800000000026,-1.9150010000000002 -0.404999,-2.199005 c-0.271,-0.282997 -0.973,-0.425995 -2.107002,-0.425995 l-3.292,0 l0,5.003998 z" fill="#0971B7"/>
    <path id="svg_15" d="m28.285040756774904,119.56822320897675 l-6.040001,0 l-0.872002,2.686996 l-2.809998,0 l4.654999,-13.995995 l3.988998,0 l4.727005,13.995995 l-2.7570040000000002,0 l-0.8919980000000012,-2.686996 zm-0.614998000000001,-1.9580000000000002 l-2.420002,-7.291 l-2.379002,7.291 l4.799004,0 z" fill="#0971B7"/>
    <path id="svg_16" d="m35.8010397567749,108.25922520897674 l0,11.616997 l6.561996,0 l0,2.378998 l-9.217995,0 l0,-13.995995 l2.6559980000000003,0 z" fill="#0971B7"/>
    <path id="svg_17" d="m54.535040756774904,110.63822220897674 l0,11.616997 l-2.6559980000000003,0 l0,-11.616997 l-4.040001,0 l0,-2.378998 l10.878998,0 l0,2.378998 l-4.182999,0 z" fill="#0971B7"/>
    <path id="svg_18" d="m60.0620417567749,122.25521920897674 l0,-13.995995 l6.900002,0 c1.715996,0 2.8979950000000008,0.296997 3.548996,0.8919980000000012 c0.6480030000000008,0.5950010000000008 0.9739990000000006,1.6709980000000015 0.9739990000000006,3.228996 c0,1.416 -0.16199500000000042,2.383003 -0.4870000000000003,2.902 c-0.3239970000000003,0.520004 -0.988998,0.879005000000001 -1.993996,1.076004 l0,0.09299500000000024 c1.551994,0.0960010000000002 2.327995,1.002007 2.327995,2.7180020000000003 l0,3.085999 l-2.6559980000000003,0 l0,-2.552994 c0,-1.442001 -0.710999000000001,-2.164001 -2.133003,-2.164001 l-3.8239970000000003,0 l0,4.716995 l-2.656998,0 zm2.6559980000000003,-6.951996 l3.814003,0 c0.907997,0 1.5120010000000002,-0.16200300000000026 1.8099980000000002,-0.4870000000000003 c0.296997,-0.3240050000000003 0.4459990000000003,-0.9760059999999995 0.4459990000000003,-1.953003 c0,-0.998001 -0.12899800000000022,-1.6429980000000008 -0.38500200000000045,-1.9329990000000001 c-0.256996,-0.2910000000000003 -0.8190000000000006,-0.4369960000000004 -1.687996,-0.4369960000000004 l-3.998001,0 l0,4.809998 l0.0009990000000000036,0 z" fill="#0971B7"/>
    <path id="svg_19" d="m82.0660387567749,119.56822320897675 l-6.040001,0 l-0.871002,2.686996 l-2.809998,0 l4.654999,-13.995995 l3.9879990000000003,0 l4.728004,13.995995 l-2.759003,0 l-0.8909990000000015,-2.686996 zm-0.614998000000001,-1.9580000000000002 l-2.419998,-7.291 l-2.3790050000000003,7.291 l4.799004,0 z" fill="#0971B7"/>
    <path id="svg_20" d="m89.5830377567749,108.25922520897674 l0,13.995995 l-2.6559980000000003,0 l0,-13.995995 l2.6559980000000003,0 z" fill="#0971B7"/>
    <path id="svg_21" d="m105.05603675677492,108.25922520897674 l0,13.995995 l-4.501999,0 l-3.998993,-7.68 c-0.19799800000000045,-0.3829960000000004 -0.51001,-1.052994 -0.9329990000000009,-2.009995 l-0.451004,-1.006004 l-0.44101000000000046,-1.003998 l-0.102997,0 l0.04100000000000005,0.9219970000000006 l0.02999900000000004,0.913002 l0.021011000000000044,1.8349990000000007 l0,8.028999 l-2.656006,0 l0,-13.995995 l4.501999,0 l3.6399990000000004,7.096001 c0.3209990000000003,0.6289980000000012 0.6929930000000013,1.390999 1.117996,2.2859949999999998 l0.5330050000000006,1.138 l0.5330050000000006,1.148003 l0.09199500000000024,0 l-0.031006000000000047,-0.902 l-0.02999900000000004,-0.902 l-0.020996000000000025,-1.8050000000000002 l0,-8.058998 l2.656998,0 l0,0.0009990000000000036 z" fill="#0971B7"/>
    <path id="svg_22" d="m110.1730417567749,108.25922520897674 l0,13.995995 l-2.656006,0 l0,-13.995995 l2.656006,0 z" fill="#0971B7"/>
    <path id="svg_23" d="m125.6460337567749,108.25922520897674 l0,13.995995 l-4.501999,0 l-3.999008,-7.68 c-0.19799800000000045,-0.3829960000000004 -0.5099950000000006,-1.052994 -0.9329990000000009,-2.009995 l-0.451004,-1.006004 l-0.4409940000000004,-1.003998 l-0.102997,0 l0.04100000000000005,0.9219970000000006 l0.02999900000000004,0.913002 l0.020996000000000025,1.8349990000000007 l0,8.028999 l-2.655991,0 l0,-13.995995 l4.501999,0 l3.6399990000000004,7.096001 c0.3209990000000003,0.6289980000000012 0.6929930000000013,1.390999 1.117996,2.2859949999999998 l0.5330050000000006,1.138 l0.5329900000000006,1.148003 l0.09201000000000013,0 l-0.031006000000000047,-0.902 l-0.02999900000000004,-0.902 l-0.020996000000000025,-1.8050000000000002 l0,-8.058998 l2.656998,0 l0,0.0009990000000000036 z" fill="#0971B7"/>
    <path id="svg_24" d="m133.6120367567749,114.81121920897675 l6.16301,0 l0.04100000000000005,2.778 c0,2.024002 -0.3810120000000005,3.328003 -1.144012,3.912003 c-0.761993000000001,0.584999000000001 -2.462997,0.8769990000000014 -5.10199,0.8769990000000014 c-2.419998,0 -4.022003,-0.3899990000000003 -4.809006,-1.1689990000000001 s-1.179993,-2.367996 -1.179993,-4.7689970000000015 c0,-3.062004 0.15699800000000041,-4.996002 0.472992,-5.803001 c0.3890080000000005,-0.984001 0.979996,-1.6470030000000002 1.772995,-1.989998 c0.7929990000000009,-0.3410030000000004 2.139999,-0.512001 4.040009,-0.512001 c2.487991,0 4.095001,0.264999 4.819,0.7939990000000009 c0.724991000000001,0.5299990000000008 1.0869900000000001,1.704002 1.0869900000000001,3.521996 l-2.686996,0 c-0.04798900000000001,-0.9159930000000006 -0.24800100000000022,-1.484993 -0.599991000000001,-1.7069930000000002 c-0.3530120000000003,-0.22300000000000025 -1.236008,-0.3340000000000005 -2.6500090000000007,-0.3340000000000005 c-1.539001,0 -2.514999,0.1919940000000004 -2.927994,0.5739970000000006 c-0.414001,0.3840030000000003 -0.621002,1.281998 -0.621002,2.6969990000000017 l-0.009995000000000013,1.403999 l0.020996000000000025,1.794998 c0,1.3880000000000001 0.20500200000000018,2.271004 0.6150050000000009,2.650002 c0.4099880000000005,0.3800050000000003 1.359985,0.5690000000000006 2.850998,0.5690000000000006 c1.44899,0 2.369995,-0.15999600000000042 2.763992,-0.480995 c0.3930050000000003,-0.3210070000000003 0.5899960000000006,-1.080002 0.5899960000000006,-2.277 l0.010010000000000012,-0.5740050000000008 l-3.518005,0 l0,-1.956001 l0.0019990000000000055,0 z" fill="#0971B7"/>
    <path id="svg_25" d="m156.13004175677492,115.50822520897674 l2.276993,0 l0,0.450996 l-0.020996000000000025,1.2200010000000001 c0,0.5889970000000008 -0.08499100000000016,1.213997 -0.255997,1.876999 l2.009995,1.702003 l-1.261993,1.528 l-1.682007,-1.416 c-0.621994000000001,1.005997 -2.057999,1.507996 -4.306992,1.507996 c-2.501999,0 -4.141006,-0.286995 -4.916,-0.8610000000000008 c-0.776001,-0.5739970000000006 -1.164001,-1.791 -1.164001,-3.650002 c0,-2.098999 0.8889920000000008,-3.277 2.6660000000000004,-3.536995 c-0.7660060000000006,-0.6699980000000014 -1.14801,-1.511002 -1.14801,-2.523003 c0,-1.291 0.31601000000000046,-2.183998 0.948013,-2.676003 c0.6329960000000008,-0.491997 1.774994,-0.7379990000000012 3.431,-0.7379990000000012 c1.735001,0 2.919998,0.25099899999999997 3.552994,0.754005000000001 c0.6320040000000009,0.5019990000000006 0.9479980000000009,1.446999 0.9479980000000009,2.8349990000000007 l-0.011002000000000024,0.7279970000000008 l-2.356995,0 l0,-0.409996 c0,-0.8400040000000006 -0.11500500000000015,-1.368004 -0.34400900000000045,-1.584 c-0.2289890000000004,-0.21500400000000022 -0.7879940000000006,-0.32200600000000046 -1.676987,-0.32200600000000046 c-1.3120120000000002,0 -1.9690090000000002,0.488007 -1.9690090000000002,1.466003 c0,0.6630020000000006 0.3420100000000006,1.284996 1.025009,1.8659970000000001 l4.25499,3.650002 c0.0680080000000001,-0.3549960000000003 0.1040040000000001,-0.687996000000001 0.1040040000000001,-0.993996 c0,-0.255005 -0.035004,-0.5460050000000006 -0.102997,-0.8740010000000009 zm-5.25,0.05199400000000001 c-1.031998,0.1500020000000002 -1.5480040000000002,0.9220050000000006 -1.5480040000000002,2.316002 c0,1.081001 0.1750030000000002,1.7679980000000008 0.522003,2.062004 c0.3500060000000003,0.293999 1.1620030000000001,0.439995 2.440994,0.439995 c1.100006,0 1.812012,-0.04899600000000001 2.138,-0.14799500000000032 c0.3240050000000003,-0.09900700000000018 0.6710050000000013,-0.3770070000000003 1.040009,-0.836006 l-4.593002,-3.834 z" fill="#0971B7"/>
    <path id="svg_26" d="m175.3980317567749,117.26122320897674 l2.6660000000000004,0 l0,0.4820020000000003 c0,1.9479980000000001 -0.356003,3.207993 -1.06601,3.778 c-0.7119900000000009,0.570999000000001 -2.283997,0.8559950000000012 -4.716995,0.8559950000000012 c-2.763,0 -4.460999,-0.450996 -5.097,-1.353996 s-0.953995000000001,-3.3150020000000002 -0.953995000000001,-7.239006 c0,-2.310997 0.4319920000000003,-3.829994 1.292999,-4.5579990000000015 c0.8609920000000006,-0.7289960000000006 2.6620030000000003,-1.091995 5.4030000000000005,-1.091995 c1.9960019999999998,0 3.328995,0.2989960000000003 3.998993,0.8959960000000009 c0.6699980000000014,0.5989990000000012 1.005005,1.786003 1.005005,3.5630040000000003 l0.011002000000000024,0.3170010000000003 l-2.6660000000000004,0 l0,-0.3580020000000003 c0,-0.916 -0.17300400000000019,-1.501999 -0.518997,-1.759003 c-0.3450010000000004,-0.255997 -1.133011,-0.38500200000000045 -2.363007,-0.38500200000000045 c-1.6470030000000002,0 -2.6369930000000004,0.20200300000000004 -2.9689940000000004,0.6050030000000006 c-0.3310090000000004,0.403 -0.4970090000000003,1.5999980000000007 -0.4970090000000003,3.588997 c0,2.68 0.14801000000000022,4.266006 0.4459990000000003,4.758003 c0.2970120000000004,0.491997 1.2590029999999999,0.7379990000000012 2.886002,0.7379990000000012 c1.319,0 2.17601,-0.137001 2.569,-0.409996 c0.3930050000000003,-0.273003 0.5890050000000008,-0.8750000000000008 0.5890050000000008,-1.8050000000000002 l-0.018997000000000024,-0.622002 z" fill="#0971B7"/>
    <path id="svg_27" d="m185.5490327567749,108.13622320897674 c2.542999,0 4.179993,0.421997 4.910995,1.2659989999999999 c0.7310030000000006,0.8450010000000008 1.097,2.732002 1.097,5.666 c0,3.206001 -0.3670040000000004,5.225998 -1.1020050000000001,6.059998 c-0.7350010000000009,0.8340000000000006 -2.514999,1.250999 -5.337997,1.250999 c-2.542999,0 -4.186996,-0.411995 -4.931992,-1.235001 c-0.7450100000000006,-0.8239970000000006 -1.117004,-2.6369930000000004 -1.117004,-5.439995 c0,-3.334999 0.365005,-5.431 1.097,-6.285004 s2.526016,-1.282997 5.384003,-1.282997 zm-0.20498700000000022,2.275002 c-1.785004,0 -2.8269960000000003,0.22899600000000045 -3.127991,0.687996000000001 s-0.451004,2.043999 -0.451004,4.758003 c0,2.009995 0.1759950000000003,3.220001 0.528,3.6299970000000004 c0.352005,0.4100040000000003 1.388992,0.614998000000001 3.110992,0.614998000000001 c1.6470030000000002,0 2.636002,-0.22999600000000045 2.9640050000000002,-0.6919940000000016 c0.3280030000000003,-0.461006 0.4920040000000004,-1.8610000000000002 0.4920040000000004,-4.199005 c0,-2.344002 -0.1549990000000004,-3.729996 -0.4670100000000003,-4.156998 c-0.3099980000000004,-0.429001 -1.326996,-0.6429980000000012 -3.048996,-0.6429980000000012 z" fill="#0971B7"/>
    <path id="svg_28" d="m206.3440467567749,108.25922520897674 l0,13.995995 l-4.501999,0 l-3.998993,-7.68 c-0.19799800000000045,-0.3829960000000004 -0.51001,-1.052994 -0.9329990000000009,-2.009995 l-0.451004,-1.006004 l-0.44101000000000046,-1.003998 l-0.102997,0 l0.04100000000000005,0.9219970000000006 l0.02999900000000004,0.913002 l0.021011000000000044,1.8349990000000007 l0,8.028999 l-2.656006,0 l0,-13.995995 l4.501999,0 l3.6399990000000004,7.096001 c0.3209990000000003,0.6289980000000012 0.6930080000000012,1.390999 1.117996,2.2859949999999998 l0.5330050000000006,1.138 l0.5330050000000006,1.148003 l0.09199500000000024,0 l-0.031006000000000047,-0.902 l-0.02999900000000004,-0.902 l-0.020996000000000025,-1.8050000000000002 l0,-8.058998 l2.656998,0 l0,0.0009990000000000036 z" fill="#0971B7"/>
    <path id="svg_29" d="m219.19103175677492,112.33921920897674 l-2.5939940000000004,0 c-0.014008000000000012,-0.12899800000000022 -0.021011000000000044,-0.22499800000000042 -0.021011000000000044,-0.286995 c-0.06199600000000006,-0.785004 -0.23500100000000004,-1.278999 -0.522003,-1.481003 c-0.2869870000000003,-0.20099600000000026 -0.9649960000000006,-0.3020020000000003 -2.030991,-0.3020020000000003 c-1.257996,0 -2.07901,0.11600500000000016 -2.466003,0.3480000000000006 c-0.38600200000000046,0.23300200000000001 -0.578995000000001,0.7220000000000006 -0.578995000000001,1.467003 c0,0.8820040000000009 0.15699800000000041,1.412003 0.4720000000000003,1.590004 s1.353989,0.313995 3.1169890000000002,0.409996 c2.085007,0.1159970000000001 3.434006,0.4130020000000003 4.044998,0.8919980000000012 c0.6120000000000008,0.4790040000000003 0.9179990000000009,1.473999 0.9179990000000009,2.983002 c0,1.860001 -0.3580020000000003,3.062004 -1.076996,3.604004 c-0.716995000000001,0.5439990000000009 -2.299988,0.8149950000000009 -4.746994,0.8149950000000009 c-2.201004,0 -3.6620030000000003,-0.266998 -4.384003,-0.7999950000000009 c-0.7209930000000008,-0.5330050000000006 -1.082001,-1.613007 -1.082001,-3.240005 l-0.009995000000000013,-0.513 l2.584,0 l0.009995000000000013,0.297005 c0,0.978996 0.17100500000000018,1.575996 0.514008,1.794998 c0.3409880000000009,0.21900200000000022 1.274002,0.3280030000000003 2.798996,0.3280030000000003 c1.188995,0 1.9479980000000001,-0.12599900000000022 2.276001,-0.3790050000000003 s0.4920040000000004,-0.8379970000000008 0.4920040000000004,-1.7539980000000006 c0,-0.6770020000000008 -0.125,-1.125999 -0.37400800000000045,-1.348999 c-0.25,-0.22200000000000025 -0.7879940000000006,-0.356003 -1.615005,-0.404999 l-1.466995,-0.0920030000000002 c-2.214996,-0.12999700000000022 -3.628998,-0.4379960000000004 -4.244003,-0.9229970000000006 s-0.923996,-1.528 -0.923996,-3.128006 c0,-1.6329960000000003 0.3710020000000004,-2.721992 1.113007,-3.265999 c0.7409970000000009,-0.5429990000000009 2.222992,-0.8139950000000009 4.444992,-0.8139950000000009 c2.104004,0 3.52301,0.24900100000000022 4.25499,0.7480010000000009 c0.7310180000000006,0.4990010000000003 1.097015,1.473999 1.097015,2.921997 l0,0.533997 z" fill="#0971B7"/>
    <path id="svg_30" d="m230.3780427567749,108.25922520897674 l2.654999,0 l0,9.310997 c0,1.9469990000000008 -0.373993,3.236 -1.122009,3.864998 c-0.7489930000000009,0.629005000000001 -2.277985,0.9430010000000006 -4.588989,0.9430010000000006 c-2.4400020000000002,0 -4.040009,-0.296997 -4.799011,-0.8929980000000012 c-0.7590030000000006,-0.594002 -1.139008,-1.848999 -1.139008,-3.763 l0,-9.463996999999999 l2.656006,0 l0,9.463996999999999 c0,1.031998 0.18499800000000038,1.6869960000000006 0.554016,1.963997 c0.3689880000000006,0.276001 1.237,0.415001 2.604004,0.415001 c1.401001,0 2.280975,-0.1399990000000003 2.640991,-0.4209980000000003 c0.3580020000000003,-0.278999 0.5379940000000006,-0.9670030000000006 0.5379940000000006,-2.060997 l0,-9.360001 l0.0010070000000000023,0 z" fill="#0971B7"/>
    <path id="svg_31" d="m238.14104375677488,108.25922520897674 l0,11.616997 l6.561981,0 l0,2.378998 l-9.218994,0 l0,-13.995995 l2.657013,0 z" fill="#0971B7"/>
    <path id="svg_32" d="m251.62404575677488,110.63822220897674 l0,11.616997 l-2.656006,0 l0,-11.616997 l-4.039001,0 l0,-2.378998 l10.878998,0 l0,2.378998 l-4.18399,0 z" fill="#0971B7"/>
    <path id="svg_33" d="m259.8080357567749,108.25922520897674 l0,13.995995 l-2.656006,0 l0,-13.995995 l2.656006,0 z" fill="#0971B7"/>
    <path id="svg_34" d="m275.2800507567749,108.25922520897674 l0,13.995995 l-4.502014,0 l-3.998993,-7.68 c-0.19799800000000045,-0.3829960000000004 -0.5099790000000006,-1.052994 -0.932983,-2.009995 l-0.451019,-1.006004 l-0.44097900000000045,-1.003998 l-0.10302700000000002,0 l0.04101600000000007,0.9219970000000006 l0.02999900000000004,0.913002 l0.020996000000000025,1.8349990000000007 l0,8.028999 l-2.656006,0 l0,-13.995995 l4.502014,0 l3.639984,7.096001 c0.3210140000000005,0.6289980000000012 0.6930240000000014,1.390999 1.118011,2.2859949999999998 l0.5329900000000006,1.138 l0.53302,1.148003 l0.09198000000000013,0 l-0.030975000000000065,-0.902 l-0.02999900000000004,-0.902 l-0.021027000000000025,-1.8050000000000002 l0,-8.058998 l2.657013,0 l0,0.0009990000000000036 z" fill="#0971B7"/>
    <path id="svg_35" d="m283.2470307567749,114.81121920897675 l6.162994,0 l0.04101600000000007,2.778 c0,2.024002 -0.3810120000000005,3.328003 -1.144012,3.912003 c-0.761993000000001,0.584999000000001 -2.463013,0.8769990000000014 -5.10199,0.8769990000000014 c-2.420013,0 -4.022003,-0.3899990000000003 -4.809021,-1.1689990000000001 s-1.179993,-2.367996 -1.179993,-4.7689970000000015 c0,-3.062004 0.1570130000000003,-4.996002 0.472992,-5.803001 c0.3890080000000005,-0.984001 0.980011,-1.6470030000000002 1.77301,-1.989998 c0.7929990000000009,-0.3410030000000004 2.140015,-0.512001 4.040009,-0.512001 c2.488007,0 4.095001,0.264999 4.819,0.7939990000000009 c0.725006,0.5299990000000008 1.0870060000000001,1.704002 1.0870060000000001,3.521996 l-2.687012,0 c-0.04800400000000001,-0.9159930000000006 -0.2479860000000003,-1.484993 -0.600006,-1.7069930000000002 c-0.352997,-0.22300000000000025 -1.235992,-0.3340000000000005 -2.6499940000000004,-0.3340000000000005 c-1.539001,0 -2.515015,0.1919940000000004 -2.9280090000000003,0.5739970000000006 c-0.414001,0.3840030000000003 -0.621002,1.281998 -0.621002,2.6969990000000017 l-0.009979000000000024,1.403999 l0.020996000000000025,1.794998 c0,1.3880000000000001 0.20498700000000022,2.271004 0.614990000000001,2.650002 c0.4100040000000003,0.3800050000000003 1.3600160000000001,0.5690000000000006 2.851013,0.5690000000000006 c1.449005,0 2.369995,-0.15999600000000042 2.763977,-0.480995 c0.3930050000000003,-0.3210070000000003 0.5900270000000006,-1.080002 0.5900270000000006,-2.277 l0.009979000000000024,-0.5740050000000008 l-3.518005,0 l0,-1.956001 l0.002014000000000004,0 z" fill="#0971B7"/>
   </g>
  </g>
  <g id="svg_81" class="">
   <path id="svg_82" d="m33.14037072589112,147.2748444299698 l0,-41.636 l20.528,0 c5.104004,0 8.622002,0.8850000000000005 10.554001,2.654 c1.931,1.7690000000000001 2.898003,4.9719999999999995 2.898003,9.608 c0,4.209 -0.4830020000000002,7.087 -1.448997,8.632 c-0.9660030000000004,1.546 -2.944,2.613001 -5.933006,3.203001 l0,0.275 c4.616005,0.2850000000000002 6.924004,2.979 6.924004,8.083 l0,9.181 l-7.900002,0 l0,-7.595001 c0,-4.290001 -2.114998,-6.435999 -6.345001,-6.435999 l-11.376999,0 l0,14.031 l-7.900002,0 zm7.900002,-20.681 l11.347,0 c2.704002,0 4.499001,-0.4830000000000002 5.384003,-1.449001 c0.8850020000000004,-0.9660000000000004 1.326996,-2.903 1.326996,-5.810999 c0,-2.9690000000000003 -0.3809970000000002,-4.885 -1.1439970000000002,-5.75 c-0.7630000000000005,-0.8640000000000004 -2.434998,-1.296 -5.017998,-1.296 l-11.896004,0 l0,14.306001 z" fill="#999999"/>
   <path id="svg_83" d="m70.3803757258911,158.4658424299698 l0,39.971001 l-12.855003,0 l-11.419998,-21.932999 c-0.566002,-1.093002 -1.454002,-3.005997 -2.665001,-5.7389980000000005 l-1.288002,-2.870003 l-1.258995,-2.869999 l-0.292999,0 l0.11699700000000007,2.6349980000000004 l0.08799700000000008,2.6060030000000003 l0.05900600000000004,5.2419970000000005 l0,22.928001000000002 l-7.584,0 l0,-39.970001 l12.854996,0 l10.395004,20.263 c0.9179990000000005,1.795998 1.980995,3.973 3.191994,6.529999 l1.523003,3.25 l1.523003,3.279999 l0.264,0 l-0.08800500000000011,-2.5769960000000003 l-0.08799700000000008,-2.577003 l-0.05899800000000003,-5.153999 l0,-23.014999 l7.583,0 z" fill="#999999"/>
   <path id="svg_84" d="m93.33837572589113,165.2598454299698 l0,33.176998 l-7.584,0 l0,-33.176998 l-11.537003,0 l0,-6.794003 l31.069,0 l0,6.794003 l-11.947998,0 z" fill="#999999"/>
   <path id="svg_85" d="m134.8313727258911,158.4658424299698 l7.584,0 l0,26.589005 c0,5.563995 -1.069,9.243996 -3.205994,11.039993 c-2.138,1.796005 -6.506012,2.694 -13.104004,2.694 c-6.968994,0 -11.537003,-0.8489990000000007 -13.703995,-2.547997 s-3.25,-5.280998 -3.25,-10.747002 l0,-27.028 l7.584,0 l0,27.028 c0,2.947998 0.526993,4.817001 1.580994,5.608002 s3.533005,1.185997 7.438004,1.185997 c4.001999,0 6.514999,-0.3999940000000003 7.539993,-1.200996 c1.025009,-0.800003 1.537003,-2.762001 1.537003,-5.886002 l0,-26.735001 z" fill="#999999"/>
   <path id="svg_86" d="m24.593373725891112,158.4658424299698 l0,39.971001 l-39.105999,0 l0,-39.971001 l39.105999,0 zm-22.495998,15.270004 l0,7.202995 l2.6349980000000004,0 l0.028999000000000014,0.8779980000000007 c0,1.796005 -1.073997,2.694 -3.2210010000000002,2.694 l0,3.133003 c0.6050030000000004,0.03900100000000003 1.015003,0.05899800000000003 1.230003,0.05899800000000003 c4.021,0 6.031998,-2.333 6.031998,-6.999001 l0,-6.968994 l-6.704998,0 l0,0.0009990000000000023 z" fill="#009244"/>
   <path id="svg_87" d="m24.245373725891113,105.6388444299698 l0,41.636 l-38.757999,0 l0,-41.636 l38.757999,0 zm-22.425999,18.319001 l0,7.202999 l6.705997,0 l0,-7.202999 l-6.705997,0 z" fill="#0971B7"/>
   <g id="svg_88">
    <path id="svg_89" d="m-51.44262627410889,226.88484142996978 l0,-13.995995 l6.88,0 c1.955,0 3.323999,0.4269940000000002 4.106999,1.280998 c0.7820010000000004,0.8539960000000004 1.174,2.351997 1.174,4.490997 c0,3.493004 -0.3139990000000002,5.737 -0.9430000000000004,6.731003 c-0.6290000000000004,0.995003 -2.047,1.491997 -4.255,1.491997 l-6.963,0 l0,0.0009990000000000023 zm2.6550000000000002,-2.235001 l3.784,0 c1.271,0 2.092999,-0.2920000000000002 2.466,-0.8769990000000008 c0.3730000000000002,-0.5840000000000004 0.559,-1.8740010000000002 0.559,-3.8699950000000003 c0,-2.064003 -0.16700000000000018,-3.376999 -0.502,-3.9380040000000003 s-1.121,-0.8419950000000007 -2.358,-0.8419950000000007 l-3.949,0 l0,9.526993000000001 z" fill="#0971B7"/>
    <path id="svg_90" d="m-37.34362727410888,226.88484142996978 l0,-13.995995 l6.901001,0 c1.7160000000000002,0 2.8979990000000004,0.296997 3.548,0.8919980000000007 s0.9739990000000004,1.6709980000000009 0.9739990000000004,3.228996 c0,1.416 -0.16300000000000014,2.383003 -0.4870000000000002,2.902 s-0.989,0.8790050000000007 -1.993999,1.076004 l0,0.09299500000000015 c1.552,0.09600100000000011 2.327999,1.002007 2.327999,2.7180020000000003 l0,3.085999 l-2.656,0 l0,-2.552994 c0,-1.442001 -0.7110000000000004,-2.164001 -2.132999,-2.164001 l-3.8250010000000003,0 l0,4.716995 l-2.656,0 zm2.656,-6.951996 l3.814001,0 c0.909,0 1.511999,-0.16200300000000015 1.8099990000000008,-0.4870000000000002 c0.297001,-0.3240050000000002 0.4459990000000002,-0.9760059999999996 0.4459990000000002,-1.953003 c0,-0.998001 -0.1279980000000001,-1.6429980000000008 -0.3839990000000002,-1.9329990000000001 c-0.257,-0.2910000000000002 -0.8190000000000004,-0.4369960000000002 -1.6870000000000007,-0.4369960000000002 l-3.999001,0 l0,4.809998 z" fill="#0971B7"/>
    <path id="svg_91" d="m-14.805625274108884,212.8888474299698 l2.6559980000000003,0 l0,9.310997 c0,1.9469990000000008 -0.3750000000000002,3.236 -1.123001,3.864998 c-0.7489970000000006,0.6290050000000007 -2.278,0.9430010000000004 -4.588997,0.9430010000000004 c-2.4400020000000002,0 -4.040001,-0.296997 -4.799002,-0.8929980000000007 c-0.7590010000000007,-0.594002 -1.138,-1.848999 -1.138,-3.763 l0,-9.463996999999999 l2.656,0 l0,9.463996999999999 c0,1.031998 0.1850010000000001,1.6869960000000006 0.5540010000000004,1.963997 c0.368999,0.276001 1.237,0.415001 2.604,0.415001 c1.401001,0 2.280998,-0.13999900000000018 2.6409990000000008,-0.4209980000000002 c0.3580020000000002,-0.278999 0.538002,-0.9670030000000004 0.538002,-2.060997 l0,-9.360001 z" fill="#0971B7"/>
    <path id="svg_92" d="m-9.699626274108887,226.88484142996978 l0,-13.995995 l5.639999,0 l0.696999000000001,0 c1.8940010000000007,0 3.170002,0.3289950000000002 3.830002,0.988998 c0.6590000000000007,0.6589970000000007 0.988998,1.9329990000000001 0.988998,3.819 c0,1.8730010000000008 -0.3139990000000002,3.116997 -0.9429970000000004,3.732002 s-1.900002,0.9229970000000004 -3.814003,0.9229970000000004 l-0.6149980000000007,0.011002000000000014 l-3.126999,0 l0,4.520996 l-2.657001,0 l0,0.0009990000000000023 zm2.6559980000000003,-6.757996 l3.025002,0 c1.2029990000000002,0 1.9669990000000008,-0.138 2.292,-0.415001 c0.3240010000000002,-0.276001 0.4870000000000002,-0.931 0.4870000000000002,-1.963997 c0,-1.182007 -0.13499800000000015,-1.9150010000000002 -0.404999,-2.199005 c-0.271,-0.282997 -0.973,-0.425995 -2.107002,-0.425995 l-3.292,0 l0,5.003998 z" fill="#0971B7"/>
    <path id="svg_93" d="m11.618374725891115,224.1978454299698 l-6.040001,0 l-0.872002,2.686996 l-2.809998,0 l4.654999,-13.995995 l3.988998,0 l4.727005,13.995995 l-2.7570040000000002,0 l-0.8919980000000007,-2.686996 zm-0.6149980000000007,-1.9580000000000002 l-2.420002,-7.291 l-2.379002,7.291 l4.799004,0 z" fill="#0971B7"/>
    <path id="svg_94" d="m19.13437372589111,212.8888474299698 l0,11.616997 l6.561996,0 l0,2.378998 l-9.217995,0 l0,-13.995995 l2.6559980000000003,0 z" fill="#0971B7"/>
    <path id="svg_95" d="m37.868374725891115,215.26784442996978 l0,11.616997 l-2.6559980000000003,0 l0,-11.616997 l-4.040001,0 l0,-2.378998 l10.878998,0 l0,2.378998 l-4.182999,0 z" fill="#0971B7"/>
    <path id="svg_96" d="m43.395375725891114,226.88484142996978 l0,-13.995995 l6.900002,0 c1.715996,0 2.8979950000000008,0.296997 3.548996,0.8919980000000007 c0.6480030000000004,0.5950010000000004 0.9739990000000004,1.6709980000000009 0.9739990000000004,3.228996 c0,1.416 -0.16199500000000025,2.383003 -0.4870000000000002,2.902 c-0.3239970000000002,0.520004 -0.988998,0.8790050000000007 -1.993996,1.076004 l0,0.09299500000000015 c1.551994,0.09600100000000011 2.327995,1.002007 2.327995,2.7180020000000003 l0,3.085999 l-2.6559980000000003,0 l0,-2.552994 c0,-1.442001 -0.7109990000000007,-2.164001 -2.133003,-2.164001 l-3.8239970000000003,0 l0,4.716995 l-2.656998,0 zm2.6559980000000003,-6.951996 l3.814003,0 c0.907997,0 1.5120010000000002,-0.16200300000000015 1.8099980000000002,-0.4870000000000002 c0.296997,-0.3240050000000002 0.4459990000000002,-0.9760059999999996 0.4459990000000002,-1.953003 c0,-0.998001 -0.1289980000000001,-1.6429980000000008 -0.3850020000000003,-1.9329990000000001 c-0.256996,-0.2910000000000002 -0.8190000000000004,-0.4369960000000002 -1.687996,-0.4369960000000002 l-3.998001,0 l0,4.809998 l0.0009990000000000023,0 z" fill="#0971B7"/>
    <path id="svg_97" d="m65.39937272589111,224.1978454299698 l-6.040001,0 l-0.871002,2.686996 l-2.809998,0 l4.654999,-13.995995 l3.9879990000000003,0 l4.728004,13.995995 l-2.759003,0 l-0.8909990000000009,-2.686996 zm-0.6149980000000007,-1.9580000000000002 l-2.419998,-7.291 l-2.3790050000000003,7.291 l4.799004,0 z" fill="#0971B7"/>
    <path id="svg_98" d="m72.91637172589111,212.8888474299698 l0,13.995995 l-2.6559980000000003,0 l0,-13.995995 l2.6559980000000003,0 z" fill="#0971B7"/>
    <path id="svg_99" d="m88.38937072589113,212.8888474299698 l0,13.995995 l-4.501999,0 l-3.998993,-7.68 c-0.19799800000000026,-0.3829960000000002 -0.51001,-1.052994 -0.9329990000000006,-2.009995 l-0.451004,-1.006004 l-0.4410100000000003,-1.003998 l-0.102997,0 l0.04100000000000003,0.9219970000000004 l0.02999900000000002,0.913002 l0.021011000000000023,1.8349990000000007 l0,8.028999 l-2.656006,0 l0,-13.995995 l4.501999,0 l3.6399990000000004,7.096001 c0.3209990000000002,0.6289980000000007 0.6929930000000007,1.390999 1.117996,2.2859949999999998 l0.5330050000000004,1.138 l0.5330050000000004,1.148003 l0.09199500000000015,0 l-0.031006000000000027,-0.902 l-0.02999900000000002,-0.902 l-0.020996000000000015,-1.8050000000000002 l0,-8.058998 l2.656998,0 l0,0.0009990000000000023 z" fill="#0971B7"/>
    <path id="svg_100" d="m93.5063757258911,212.8888474299698 l0,13.995995 l-2.656006,0 l0,-13.995995 l2.656006,0 z" fill="#0971B7"/>
    <path id="svg_101" d="m108.97936772589111,212.8888474299698 l0,13.995995 l-4.501999,0 l-3.999008,-7.68 c-0.19799800000000026,-0.3829960000000002 -0.5099950000000004,-1.052994 -0.9329990000000006,-2.009995 l-0.451004,-1.006004 l-0.4409940000000002,-1.003998 l-0.102997,0 l0.04100000000000003,0.9219970000000004 l0.02999900000000002,0.913002 l0.020996000000000015,1.8349990000000007 l0,8.028999 l-2.655991,0 l0,-13.995995 l4.501999,0 l3.6399990000000004,7.096001 c0.3209990000000002,0.6289980000000007 0.6929930000000007,1.390999 1.117996,2.2859949999999998 l0.5330050000000004,1.138 l0.5329900000000004,1.148003 l0.09201000000000008,0 l-0.031006000000000027,-0.902 l-0.02999900000000002,-0.902 l-0.020996000000000015,-1.8050000000000002 l0,-8.058998 l2.656998,0 l0,0.0009990000000000023 z" fill="#0971B7"/>
    <path id="svg_102" d="m116.94537072589111,219.4408414299698 l6.16301,0 l0.04100000000000003,2.778 c0,2.024002 -0.38101200000000035,3.328003 -1.144012,3.912003 c-0.7619930000000007,0.5849990000000007 -2.462997,0.8769990000000008 -5.10199,0.8769990000000008 c-2.419998,0 -4.022003,-0.3899990000000002 -4.809006,-1.1689990000000001 s-1.179993,-2.367996 -1.179993,-4.7689970000000015 c0,-3.062004 0.15699800000000025,-4.996002 0.472992,-5.803001 c0.38900800000000035,-0.984001 0.979996,-1.6470030000000002 1.772995,-1.989998 c0.7929990000000005,-0.3410030000000002 2.139999,-0.512001 4.040009,-0.512001 c2.487991,0 4.095001,0.264999 4.819,0.7939990000000005 c0.7249910000000007,0.5299990000000004 1.0869900000000001,1.704002 1.0869900000000001,3.521996 l-2.686996,0 c-0.04798900000000001,-0.9159930000000004 -0.2480010000000001,-1.484993 -0.5999910000000007,-1.7069930000000002 c-0.3530120000000002,-0.22300000000000014 -1.236008,-0.33400000000000035 -2.6500090000000007,-0.33400000000000035 c-1.539001,0 -2.514999,0.19199400000000022 -2.927994,0.5739970000000004 c-0.414001,0.3840030000000002 -0.621002,1.281998 -0.621002,2.6969990000000017 l-0.009995000000000007,1.403999 l0.020996000000000015,1.794998 c0,1.3880000000000001 0.2050020000000001,2.271004 0.6150050000000006,2.650002 c0.40998800000000035,0.3800050000000002 1.359985,0.5690000000000004 2.850998,0.5690000000000004 c1.44899,0 2.369995,-0.15999600000000025 2.763992,-0.480995 c0.3930050000000002,-0.3210070000000002 0.5899960000000004,-1.080002 0.5899960000000004,-2.277 l0.010010000000000007,-0.5740050000000004 l-3.518005,0 l0,-1.956001 l0.001999000000000003,0 z" fill="#0971B7"/>
    <path id="svg_103" d="m139.46337572589113,220.13784742996978 l2.276993,0 l0,0.450996 l-0.020996000000000015,1.2200010000000001 c0,0.5889970000000004 -0.0849910000000001,1.213997 -0.255997,1.876999 l2.009995,1.702003 l-1.261993,1.528 l-1.682007,-1.416 c-0.6219940000000007,1.005997 -2.057999,1.507996 -4.306992,1.507996 c-2.501999,0 -4.141006,-0.286995 -4.916,-0.8610000000000004 c-0.776001,-0.5739970000000004 -1.164001,-1.791 -1.164001,-3.650002 c0,-2.098999 0.8889920000000004,-3.277 2.6660000000000004,-3.536995 c-0.7660060000000004,-0.6699980000000008 -1.14801,-1.511002 -1.14801,-2.523003 c0,-1.291 0.3160100000000003,-2.183998 0.948013,-2.676003 c0.6329960000000004,-0.491997 1.774994,-0.7379990000000007 3.431,-0.7379990000000007 c1.735001,0 2.919998,0.250999 3.552994,0.7540050000000007 c0.6320040000000005,0.5019990000000004 0.9479980000000005,1.446999 0.9479980000000005,2.8349990000000007 l-0.011002000000000014,0.7279970000000004 l-2.356995,0 l0,-0.409996 c0,-0.8400040000000004 -0.1150050000000001,-1.368004 -0.3440090000000003,-1.584 c-0.22898900000000022,-0.2150040000000001 -0.7879940000000004,-0.3220060000000003 -1.676987,-0.3220060000000003 c-1.3120120000000002,0 -1.9690090000000002,0.488007 -1.9690090000000002,1.466003 c0,0.6630020000000004 0.34201000000000037,1.284996 1.025009,1.8659970000000001 l4.25499,3.650002 c0.06800800000000005,-0.3549960000000002 0.10400400000000005,-0.6879960000000007 0.10400400000000005,-0.993996 c0,-0.255005 -0.035004,-0.5460050000000004 -0.102997,-0.8740010000000006 zm-5.25,0.05199400000000001 c-1.031998,0.1500020000000001 -1.5480040000000002,0.9220050000000004 -1.5480040000000002,2.316002 c0,1.081001 0.1750030000000001,1.7679980000000008 0.522003,2.062004 c0.3500060000000002,0.293999 1.1620030000000001,0.439995 2.440994,0.439995 c1.100006,0 1.812012,-0.04899600000000001 2.138,-0.14799500000000018 c0.3240050000000002,-0.09900700000000011 0.6710050000000007,-0.3770070000000002 1.040009,-0.836006 l-4.593002,-3.834 z" fill="#0971B7"/>
    <path id="svg_104" d="m158.73136572589112,221.89084542996977 l2.6660000000000004,0 l0,0.4820020000000002 c0,1.9479980000000001 -0.356003,3.207993 -1.06601,3.778 c-0.7119900000000005,0.5709990000000007 -2.283997,0.8559950000000007 -4.716995,0.8559950000000007 c-2.763,0 -4.460999,-0.450996 -5.097,-1.353996 s-0.9539950000000007,-3.3150020000000002 -0.9539950000000007,-7.239006 c0,-2.310997 0.4319920000000002,-3.829994 1.292999,-4.5579990000000015 c0.8609920000000004,-0.7289960000000004 2.6620030000000003,-1.091995 5.4030000000000005,-1.091995 c1.9960019999999998,0 3.328995,0.2989960000000002 3.998993,0.8959960000000005 c0.6699980000000008,0.5989990000000007 1.005005,1.786003 1.005005,3.5630040000000003 l0.011002000000000014,0.3170010000000002 l-2.6660000000000004,0 l0,-0.3580020000000002 c0,-0.916 -0.1730040000000001,-1.501999 -0.518997,-1.759003 c-0.3450010000000002,-0.255997 -1.133011,-0.3850020000000003 -2.363007,-0.3850020000000003 c-1.6470030000000002,0 -2.6369930000000004,0.20200300000000004 -2.9689940000000004,0.6050030000000004 c-0.3310090000000002,0.403 -0.4970090000000002,1.5999980000000007 -0.4970090000000002,3.588997 c0,2.68 0.1480100000000001,4.266006 0.4459990000000002,4.758003 c0.2970120000000002,0.491997 1.2590029999999999,0.7379990000000007 2.886002,0.7379990000000007 c1.319,0 2.17601,-0.137001 2.569,-0.409996 c0.3930050000000002,-0.273003 0.5890050000000004,-0.8750000000000004 0.5890050000000004,-1.8050000000000002 l-0.018997000000000014,-0.622002 z" fill="#0971B7"/>
    <path id="svg_105" d="m168.8823667258911,212.76584542996977 c2.542999,0 4.179993,0.421997 4.910995,1.2659989999999999 c0.7310030000000004,0.8450010000000004 1.097,2.732002 1.097,5.666 c0,3.206001 -0.3670040000000002,5.225998 -1.1020050000000001,6.059998 c-0.7350010000000005,0.8340000000000004 -2.514999,1.250999 -5.337997,1.250999 c-2.542999,0 -4.186996,-0.411995 -4.931992,-1.235001 c-0.7450100000000004,-0.8239970000000004 -1.117004,-2.6369930000000004 -1.117004,-5.439995 c0,-3.334999 0.365005,-5.431 1.097,-6.285004 s2.526016,-1.282997 5.384003,-1.282997 zm-0.2049870000000001,2.275002 c-1.785004,0 -2.8269960000000003,0.22899600000000025 -3.127991,0.6879960000000007 s-0.451004,2.043999 -0.451004,4.758003 c0,2.009995 0.17599500000000018,3.220001 0.528,3.6299970000000004 c0.352005,0.4100040000000002 1.388992,0.6149980000000007 3.110992,0.6149980000000007 c1.6470030000000002,0 2.636002,-0.22999600000000026 2.9640050000000002,-0.6919940000000009 c0.3280030000000002,-0.461006 0.4920040000000002,-1.8610000000000002 0.4920040000000002,-4.199005 c0,-2.344002 -0.15499900000000022,-3.729996 -0.4670100000000002,-4.156998 c-0.3099980000000002,-0.429001 -1.326996,-0.6429980000000007 -3.048996,-0.6429980000000007 z" fill="#0971B7"/>
    <path id="svg_106" d="m189.6773807258911,212.8888474299698 l0,13.995995 l-4.501999,0 l-3.998993,-7.68 c-0.19799800000000026,-0.3829960000000002 -0.51001,-1.052994 -0.9329990000000006,-2.009995 l-0.451004,-1.006004 l-0.4410100000000003,-1.003998 l-0.102997,0 l0.04100000000000003,0.9219970000000004 l0.02999900000000002,0.913002 l0.021011000000000023,1.8349990000000007 l0,8.028999 l-2.656006,0 l0,-13.995995 l4.501999,0 l3.6399990000000004,7.096001 c0.3209990000000002,0.6289980000000007 0.6930080000000007,1.390999 1.117996,2.2859949999999998 l0.5330050000000004,1.138 l0.5330050000000004,1.148003 l0.09199500000000015,0 l-0.031006000000000027,-0.902 l-0.02999900000000002,-0.902 l-0.020996000000000015,-1.8050000000000002 l0,-8.058998 l2.656998,0 l0,0.0009990000000000023 z" fill="#0971B7"/>
    <path id="svg_107" d="m202.52436572589113,216.96884142996979 l-2.5939940000000004,0 c-0.014008000000000007,-0.1289980000000001 -0.021011000000000023,-0.22499800000000025 -0.021011000000000023,-0.286995 c-0.06199600000000003,-0.785004 -0.23500100000000004,-1.278999 -0.522003,-1.481003 c-0.2869870000000002,-0.20099600000000015 -0.9649960000000004,-0.3020020000000002 -2.030991,-0.3020020000000002 c-1.257996,0 -2.07901,0.1160050000000001 -2.466003,0.34800000000000036 c-0.3860020000000003,0.23300200000000001 -0.5789950000000007,0.7220000000000004 -0.5789950000000007,1.467003 c0,0.8820040000000005 0.15699800000000025,1.412003 0.4720000000000002,1.590004 s1.353989,0.313995 3.1169890000000002,0.409996 c2.085007,0.11599700000000006 3.434006,0.4130020000000002 4.044998,0.8919980000000007 c0.6120000000000004,0.4790040000000002 0.9179990000000005,1.473999 0.9179990000000005,2.983002 c0,1.860001 -0.3580020000000002,3.062004 -1.076996,3.604004 c-0.7169950000000007,0.5439990000000005 -2.299988,0.8149950000000006 -4.746994,0.8149950000000006 c-2.201004,0 -3.6620030000000003,-0.266998 -4.384003,-0.7999950000000005 c-0.7209930000000004,-0.5330050000000004 -1.082001,-1.613007 -1.082001,-3.240005 l-0.009995000000000007,-0.513 l2.584,0 l0.009995000000000007,0.297005 c0,0.978996 0.1710050000000001,1.575996 0.514008,1.794998 c0.3409880000000005,0.2190020000000001 1.274002,0.3280030000000002 2.798996,0.3280030000000002 c1.188995,0 1.9479980000000001,-0.1259990000000001 2.276001,-0.3790050000000002 s0.4920040000000002,-0.8379970000000004 0.4920040000000002,-1.7539980000000006 c0,-0.6770020000000004 -0.125,-1.125999 -0.3740080000000003,-1.348999 c-0.25,-0.22200000000000014 -0.7879940000000004,-0.356003 -1.615005,-0.404999 l-1.466995,-0.09200300000000011 c-2.214996,-0.1299970000000001 -3.628998,-0.4379960000000002 -4.244003,-0.9229970000000004 s-0.923996,-1.528 -0.923996,-3.128006 c0,-1.6329960000000003 0.3710020000000002,-2.721992 1.113007,-3.265999 c0.7409970000000005,-0.5429990000000005 2.222992,-0.8139950000000006 4.444992,-0.8139950000000006 c2.104004,0 3.52301,0.2490010000000001 4.25499,0.7480010000000006 c0.7310180000000004,0.4990010000000002 1.097015,1.473999 1.097015,2.921997 l0,0.533997 z" fill="#0971B7"/>
    <path id="svg_108" d="m213.7113767258911,212.8888474299698 l2.654999,0 l0,9.310997 c0,1.9469990000000008 -0.373993,3.236 -1.122009,3.864998 c-0.7489930000000006,0.6290050000000007 -2.277985,0.9430010000000004 -4.588989,0.9430010000000004 c-2.4400020000000002,0 -4.040009,-0.296997 -4.799011,-0.8929980000000007 c-0.7590030000000004,-0.594002 -1.139008,-1.848999 -1.139008,-3.763 l0,-9.463996999999999 l2.656006,0 l0,9.463996999999999 c0,1.031998 0.18499800000000022,1.6869960000000006 0.554016,1.963997 c0.36898800000000037,0.276001 1.237,0.415001 2.604004,0.415001 c1.401001,0 2.280975,-0.13999900000000018 2.640991,-0.4209980000000002 c0.3580020000000002,-0.278999 0.5379940000000004,-0.9670030000000004 0.5379940000000004,-2.060997 l0,-9.360001 l0.001007000000000001,0 z" fill="#0971B7"/>
    <path id="svg_109" d="m221.4743777258911,212.8888474299698 l0,11.616997 l6.561981,0 l0,2.378998 l-9.218994,0 l0,-13.995995 l2.657013,0 z" fill="#0971B7"/>
    <path id="svg_110" d="m234.9573797258911,215.26784442996978 l0,11.616997 l-2.656006,0 l0,-11.616997 l-4.039001,0 l0,-2.378998 l10.878998,0 l0,2.378998 l-4.18399,0 z" fill="#0971B7"/>
    <path id="svg_111" d="m243.14136972589114,212.8888474299698 l0,13.995995 l-2.656006,0 l0,-13.995995 l2.656006,0 z" fill="#0971B7"/>
    <path id="svg_112" d="m258.61338472589114,212.8888474299698 l0,13.995995 l-4.502014,0 l-3.998993,-7.68 c-0.19799800000000026,-0.3829960000000002 -0.5099790000000004,-1.052994 -0.932983,-2.009995 l-0.451019,-1.006004 l-0.4409790000000003,-1.003998 l-0.10302700000000002,0 l0.04101600000000004,0.9219970000000004 l0.02999900000000002,0.913002 l0.020996000000000015,1.8349990000000007 l0,8.028999 l-2.656006,0 l0,-13.995995 l4.502014,0 l3.639984,7.096001 c0.32101400000000035,0.6289980000000007 0.6930240000000008,1.390999 1.118011,2.2859949999999998 l0.5329900000000004,1.138 l0.53302,1.148003 l0.09198000000000008,0 l-0.03097500000000004,-0.902 l-0.02999900000000002,-0.902 l-0.021027000000000014,-1.8050000000000002 l0,-8.058998 l2.657013,0 l0,0.0009990000000000023 z" fill="#0971B7"/>
    <path id="svg_113" d="m266.5803647258911,219.4408414299698 l6.162994,0 l0.04101600000000004,2.778 c0,2.024002 -0.38101200000000035,3.328003 -1.144012,3.912003 c-0.7619930000000007,0.5849990000000007 -2.463013,0.8769990000000008 -5.10199,0.8769990000000008 c-2.420013,0 -4.022003,-0.3899990000000002 -4.809021,-1.1689990000000001 s-1.179993,-2.367996 -1.179993,-4.7689970000000015 c0,-3.062004 0.15701300000000018,-4.996002 0.472992,-5.803001 c0.38900800000000035,-0.984001 0.980011,-1.6470030000000002 1.77301,-1.989998 c0.7929990000000005,-0.3410030000000002 2.140015,-0.512001 4.040009,-0.512001 c2.488007,0 4.095001,0.264999 4.819,0.7939990000000005 c0.725006,0.5299990000000004 1.0870060000000001,1.704002 1.0870060000000001,3.521996 l-2.687012,0 c-0.04800400000000001,-0.9159930000000004 -0.24798600000000018,-1.484993 -0.600006,-1.7069930000000002 c-0.352997,-0.22300000000000014 -1.235992,-0.33400000000000035 -2.6499940000000004,-0.33400000000000035 c-1.539001,0 -2.515015,0.19199400000000022 -2.9280090000000003,0.5739970000000004 c-0.414001,0.3840030000000002 -0.621002,1.281998 -0.621002,2.6969990000000017 l-0.009979000000000014,1.403999 l0.020996000000000015,1.794998 c0,1.3880000000000001 0.2049870000000001,2.271004 0.6149900000000007,2.650002 c0.4100040000000002,0.3800050000000002 1.3600160000000001,0.5690000000000004 2.851013,0.5690000000000004 c1.449005,0 2.369995,-0.15999600000000025 2.763977,-0.480995 c0.3930050000000002,-0.3210070000000002 0.5900270000000004,-1.080002 0.5900270000000004,-2.277 l0.009979000000000014,-0.5740050000000004 l-3.518005,0 l0,-1.956001 l0.002014000000000002,0 z" fill="#0971B7"/>
   </g>
  </g>
 </g>
</svg>